# xmcd
#
# Track frame offsets: 
#        150
#        13052
#        26100
#        38887
#        50767
#        62117
#        73845
#        85047
#        96247
#        108757
#        121370
#        133810
#        147145
#        158357
#        170450
#        183270
#        194672
#        207697
#
# Disc length: 2929 seconds
#
# Revision: 1
# Processed by: cddbd v1.5.1PL2 Copyright (c) Steve Scherf et al.
# Submitted via: ExactAudioCopy v0.95b3
#
DISCID=070b6f12
DTITLE=Mary Wells - Early Classics: Mary Wells
DYEAR=1996
DGENRE=Soul
TTITLE0=My Guy
TTITLE1=My Baby Just Cares For Me
TTITLE2=I Only Have Eyes For You
TTITLE3=Shop Around
TTITLE4=When Your Lover Comes Back
TTITLE5=Let Your Conscience Be Your Guide
TTITLE6=The One Who Really Loves You
TTITLE7=(I Guess There's) No Love
TTITLE8=You Beat Me To The Punch
TTITLE9=Two Lovers
TTITLE10=Together [featuring Marvin Gaye]
TTITLE11=Deed I Do [featuring Marvin Gaye]
TTITLE12=Drop In The Bucket
TTITLE13=He's The One I Love
TTITLE14=After The Lights Go Down Low [featuring Marvin Gaye]
TTITLE15=He Holds His Own
TTITLE16=Does He Love Me?
TTITLE17=Whisper You Love Me Boy
EXTD=
EXTT0=
EXTT1=
EXTT2=
EXTT3=
EXTT4=
EXTT5=
EXTT6=
EXTT7=
EXTT8=
EXTT9=
EXTT10=
EXTT11=
EXTT12=
EXTT13=
EXTT14=
EXTT15=
EXTT16=
EXTT17=
PLAYORDER=
